<svg xmlns="http://www.w3.org/2000/svg"   width="15" height="34" viewBox="0 0 30 34" fill="white" aria-hidden="true">
  <path d="M27.434.662l-4.49-.655a.389.389 0 00-.319.079l-1.913 2.46a.593.593 0 00-.106.55c.053.184-.106.341-.292.315l-1.568-.34a.657.657 0 00-.664.235l-6.217 7.855c-.107.157-.32.21-.505.131l-2.365-1.047a.62.62 0 00-.637.052l-1.196.812a.669.669 0 01-.664.052l-.585-.288a.666.666 0 00-.93.42l-.425 1.858c-.106.445.08.89.478 1.126l.904.55 2.896 1.754 1.408.864c.399.236.903.184 1.249-.104l2.364-2.043c.186-.157.479-.21.691-.078l.718.366a.61.61 0 00.717-.104l1.196-1.1a.618.618 0 01.69-.105l1.78.812c.266.13.585.052.771-.183l.824-1.048 6.244-7.881a.636.636 0 00-.372-1.021l-1.382-.314c-.292-.053-.425-.42-.213-.629l2.153-2.644c.212-.315.08-.655-.24-.707zM6.843 16.529c-.133-.078-.266.052-.213.183l.664 1.728c.054.131.054.262.027.393l-.585 2.252c-.026.157.027.314.133.393l1.674 1.283c.16.105.372.105.505-.026l1.754-1.52c.106-.078.239-.13.345-.156l1.993-.21c.133-.026.186-.21.053-.288l-6.35-4.032zM6.258 22.342a.43.43 0 00-.398-.052l-1.408.68c-.08.026-.133.105-.186.184l-3.003 7.305v.052c.027.026.053.053.107.053l.69-.262h.08c.027.026.053.078.027.105L.014 33.889c-.053.078.054.157.107.078l7.785-7.698a.496.496 0 00.133-.261l.159-1.99a.43.43 0 00-.133-.315l-1.807-1.361z" class="css-et4cm8"></path>
</svg>